# xmcd
#
# Track frame offsets:
#      150
#      14882
#      30787
#      67230
#      85092
#      100707
#      122092
#      137865
#      145132
#      172132
#      186162
#      208787
#      221235
#      244295
#      259477
#      287635
#      305705
#
# Disc length: 4579
# Revision: 2
# Processed by: cddbd v1.4b41PL1 Copyright (c) Steve Scherf et al.
# Submitted via: PowerPlay 1.50
#
DISCID=1211e111
DTITLE=Roy Buchanan - Master Series
DYEAR=1900
DGENRE=
TTITLE0=Rescue me
TTITLE1=Sweet dreams (instrumental)
TTITLE2=Green onions (instrumental)
TTITLE3=If six was nine
TTITLE4=Tribute to Elmore James (instrumental)
TTITLE5=Please don't turn me away
TTITLE6=Country preacher (instrumental)
TTITLE7=Cajun (instrumental)
TTITLE8=Roy's bluz
TTITLE9=Filthy Teddy (instrumental)
TTITLE10=Wayfaring pilgrim (instrumental)
TTITLE11=Running out
TTITLE12=John's blues (instrumental)
TTITLE13=Caruso
TTITLE14=After hours (instrumental)
TTITLE15=My friend Jeff (instrumental)
TTITLE16=Hey Joe (live)
EXTD=
EXTT0=
EXTT1=
EXTT2=
EXTT3=
EXTT4=
EXTT5=
EXTT6=
EXTT7=
EXTT8=
EXTT9=
EXTT10=
EXTT11=
EXTT12=
EXTT13=
EXTT14=
EXTT15=
EXTT16=
PLAYORDER=
